# xmcd
#
# Track frame offsets:
# 150
# 13934
# 33656
# 45047
# 55995
# 68774
# 76580
# 83499
# 86438
# 90887
# 96504
# 100811
# 121561
# 136970
# 156104
# 166844
#
# Disc length: 2270 seconds
#
#
# Revision: 0
# Processed by: cddbd v1.5.1PL2 Copyright (c) Steve Scherf et al.
# Submitted via: FreeRIP 2.942 
#
DISCID=ab08dc10
DTITLE=Projeto Claves - Projeto Claves 2005
DYEAR=2005
DGENRE=Gospel Infantil
TTITLE0=Este é o Meu Corpo
TTITLE1=Vamos Cantar
TTITLE2=La manê
TTITLE3=Amas se queres ser feliz
TTITLE4=Meu corpo é só meu
TTITLE5=Quem é Deus
TTITLE6=O amor repartido
TTITLE7=É bom sorrir
TTITLE8=Em todo tempo e lugar
TTITLE9=Deus comigo
TTITLE10=Visitante
TTITLE11=Faça o melhor para todos
TTITLE12=Tra-lá-lá-lá
TTITLE13=Movimentar é bom
TTITLE14=Que a luz de Cristo brilhe
TTITLE15=Benção
EXTD=
EXTT0=
EXTT1=
EXTT2=
EXTT3=
EXTT4=
EXTT5=
EXTT6=
EXTT7=
EXTT8=
EXTT9=
EXTT10=
EXTT11=
EXTT12=
EXTT13=
EXTT14=
EXTT15=
PLAYORDER=
